<svg id="visual" viewBox="0 0 900 600" width="900" height="600" xmlns="http://www.w3.org/2000/svg" xmlns:xlink="http://www.w3.org/1999/xlink" version="1.1"><rect x="0" y="0" width="900" height="600" fill="#202020"></rect><path d="M0 316L21.5 332.3C43 348.7 86 381.3 128.8 398.5C171.7 415.7 214.3 417.3 257.2 398.8C300 380.3 343 341.7 385.8 346.2C428.7 350.7 471.3 398.3 514.2 411.3C557 424.3 600 402.7 642.8 386C685.7 369.3 728.3 357.7 771.2 359C814 360.3 857 374.7 878.5 381.8L900 389L900 601L878.5 601C857 601 814 601 771.2 601C728.3 601 685.7 601 642.8 601C600 601 557 601 514.2 601C471.3 601 428.7 601 385.8 601C343 601 300 601 257.2 601C214.3 601 171.7 601 128.8 601C86 601 43 601 21.5 601L0 601Z" fill="#d6d3ff"></path><path d="M0 445L21.5 436.3C43 427.7 86 410.3 128.8 408.8C171.7 407.3 214.3 421.7 257.2 431C300 440.3 343 444.7 385.8 446.5C428.7 448.3 471.3 447.7 514.2 439.3C557 431 600 415 642.8 402C685.7 389 728.3 379 771.2 371.2C814 363.3 857 357.7 878.5 354.8L900 352L900 601L878.5 601C857 601 814 601 771.2 601C728.3 601 685.7 601 642.8 601C600 601 557 601 514.2 601C471.3 601 428.7 601 385.8 601C343 601 300 601 257.2 601C214.3 601 171.7 601 128.8 601C86 601 43 601 21.5 601L0 601Z" fill="#bcb7ff"></path><path d="M0 409L21.5 421.3C43 433.7 86 458.3 128.8 462.7C171.7 467 214.3 451 257.2 449.5C300 448 343 461 385.8 458C428.7 455 471.3 436 514.2 439.2C557 442.3 600 467.7 642.8 482C685.7 496.3 728.3 499.7 771.2 494.3C814 489 857 475 878.5 468L900 461L900 601L878.5 601C857 601 814 601 771.2 601C728.3 601 685.7 601 642.8 601C600 601 557 601 514.2 601C471.3 601 428.7 601 385.8 601C343 601 300 601 257.2 601C214.3 601 171.7 601 128.8 601C86 601 43 601 21.5 601L0 601Z" fill="#a9a1ff"></path><path d="M0 524L21.5 523.8C43 523.7 86 523.3 128.8 517.2C171.7 511 214.3 499 257.2 500.7C300 502.3 343 517.7 385.8 511.7C428.7 505.7 471.3 478.3 514.2 478.7C557 479 600 507 642.8 518.2C685.7 529.3 728.3 523.7 771.2 515.7C814 507.7 857 497.3 878.5 492.2L900 487L900 601L878.5 601C857 601 814 601 771.2 601C728.3 601 685.7 601 642.8 601C600 601 557 601 514.2 601C471.3 601 428.7 601 385.8 601C343 601 300 601 257.2 601C214.3 601 171.7 601 128.8 601C86 601 43 601 21.5 601L0 601Z" fill="#bcb7ff"></path><path d="M0 503L21.5 512C43 521 86 539 128.8 550.7C171.7 562.3 214.3 567.7 257.2 568.5C300 569.3 343 565.7 385.8 557.5C428.7 549.3 471.3 536.7 514.2 530.2C557 523.7 600 523.3 642.8 520.3C685.7 517.3 728.3 511.7 771.2 512.2C814 512.7 857 519.3 878.5 522.7L900 526L900 601L878.5 601C857 601 814 601 771.2 601C728.3 601 685.7 601 642.8 601C600 601 557 601 514.2 601C471.3 601 428.7 601 385.8 601C343 601 300 601 257.2 601C214.3 601 171.7 601 128.8 601C86 601 43 601 21.5 601L0 601Z" fill="#d6d3ff"></path></svg>